<?xml version="1.0" encoding="utf-8"?>
<!-- Generator: Adobe Illustrator 28.1.0, SVG Export Plug-In . SVG Version: 6.00 Build 0)  -->
<svg version="1.1" xmlns="http://www.w3.org/2000/svg" xmlns:xlink="http://www.w3.org/1999/xlink" x="0px" y="0px"
	 viewBox="0 0 600 200" style="enable-background:new 0 0 600 200; filter: drop-shadow(0px 0px 5px rgb(255 255 255 / 0.6));" xml:space="preserve">
<style type="text/css">
	.st0{display:none;}
	.st1{display:inline;}
	.st2{fill:none;}
	.st3{font-family:'GillSansMT';}
	.st4{font-size:212.4023px;}
	.st5{letter-spacing:10;}
	.st6{stroke:#000000;stroke-width:6;stroke-miterlimit:10;}
	.st7{font-size:149.931px;}
	.st8{display:inline;fill:#F6D30C;}
	.st9{display:inline;fill:none;stroke:#FFFFFF;stroke-width:9;stroke-miterlimit:10;}
	.st10{stroke:#FFFFFF;stroke-width:6;stroke-miterlimit:10;}
	.st11{display:inline;fill:none;stroke:#000000;stroke-width:9;stroke-miterlimit:10;}
	.st12{font-size:214.9083px;}
	.st13{font-size:151.7px;}
	.st14{fill:#FFFFFF;}
	.st15{fill:#FFFFFF;stroke:#FFFFFF;stroke-width:6;stroke-miterlimit:10;}
	.st16{display:inline;fill:#FFFFFF;}
	.st17{fill:#FFFFFF;stroke:#FFFFFF;stroke-width:4;stroke-miterlimit:10;}
	.st18{font-size:109px;}
	.st19{letter-spacing:5;}
	.st20{letter-spacing:1;}
</style>
<g id="logo-end-black" class="st0">
	<g class="st1">
		<g>
			<rect x="66" y="27.9" class="st2" width="232.4" height="145.2"/>
			<text transform="matrix(1 0 0 1 130.1553 172.7622)" class="st3 st4 st5">L</text>
		</g>
		<g>
			<rect x="144.4" y="33.1" class="st2" width="574.8" height="183.9"/>
			<text transform="matrix(1 0 0 1 175.0679 135.3428)" class="st6 st3 st7">E DOJO</text>
		</g>
		<polygon points="168,153.9 248.5,153.9 248.5,172.8 147.2,172.8 		"/>
	</g>
</g>
<g id="jaune" class="st0">
	<rect x="-100" class="st8" width="800" height="200"/>
</g>
<g id="noire" class="st0">
	<rect x="-100" class="st1" width="800" height="200"/>
</g>
<g id="small-symbol" class="st0">
	<g>
		<rect x="473.2" y="113" class="st9" width="81.8" height="0.4"/>
		<g class="st1">
			<g>
				<path class="st10" d="M491.7,88.3h21.5v3.3h-9V114h-3.7V91.6h-8.8V88.3z"/>
				<path class="st10" d="M514.1,88.3h21.5v3.3h-9V114h-3.7V91.6h-8.8V88.3z"/>
			</g>
		</g>
		<g class="st1">
			<g>
				<path class="st10" d="M491.7,74h21.5v3.3h-9v22.4h-3.7V77.3h-8.8V74z"/>
				<path class="st10" d="M514.1,74h21.5v3.3h-9v22.4h-3.7V77.3h-8.8V74z"/>
			</g>
		</g>
	</g>
	<g>
		<rect x="473.3" y="112.7" class="st11" width="81.8" height="0.4"/>
		<g class="st1">
			<g>
				<path class="st6" d="M491.9,88h21.5v3.3h-9v22.4h-3.7V91.3h-8.8V88z"/>
				<path class="st6" d="M514.2,88h21.5v3.3h-9v22.4H523V91.3h-8.8V88z"/>
			</g>
		</g>
		<g class="st1">
			<g>
				<path class="st6" d="M491.9,73.7h21.5V77h-9v22.4h-3.7V77h-8.8V73.7z"/>
				<path class="st6" d="M514.2,73.7h21.5V77h-9v22.4H523V77h-8.8V73.7z"/>
			</g>
		</g>
	</g>
</g>
<g id="logo_00000067232344616083151670000014018396311308288700_" class="st0">
	<g id="black" class="st1">
		<g>
			<rect x="-52.6" y="32.7" class="st2" width="235.2" height="146.9"/>
			<text transform="matrix(1 0 0 1 12.3022 179.2402)" class="st3 st12 st5">L</text>
		</g>
		<g>
			<rect x="26.7" y="37.9" class="st2" width="581.6" height="186.1"/>
			<text transform="matrix(1 0 0 1 57.7441 141.3784)" class="st6 st3 st13">E DOJO</text>
		</g>
		<polygon points="50.6,160.1 132,160.1 132,179.2 29.5,179.2 		"/>
	</g>
	<g id="white">
		<g class="st1">
			<rect x="-52.4" y="32.7" class="st2" width="235.2" height="146.9"/>
			<text transform="matrix(1 0 0 1 12.5547 179.3102)" class="st14 st3 st12 st5">L</text>
		</g>
		<g class="st1">
			<rect x="26.9" y="38" class="st2" width="581.6" height="186.1"/>
			<text transform="matrix(1 0 0 1 57.9966 141.4484)" class="st15 st3 st13">E DOJO</text>
		</g>
		<polygon class="st16" points="50.8,160.2 132.3,160.2 132.3,179.3 29.8,179.3 		"/>
	</g>
</g>
<g id="Logo-black">
	<rect x="454.8" y="109.8" width="89.8" height="8.4"/>
	<g>
		<polygon points="477.4,92.4 486.2,92.4 486.2,114.8 489.9,114.8 489.9,92.4 498.8,92.4 498.8,89.1 477.4,89.1 		"/>
		<polygon points="492.4,117.3 483.7,117.3 483.7,94.9 474.9,94.9 474.9,86.6 501.3,86.6 501.3,94.9 492.4,94.9 		"/>
	</g>
	<g>
		<polygon points="499.7,92.4 508.5,92.4 508.5,114.8 512.2,114.8 512.2,92.4 521.2,92.4 521.2,89.1 499.7,89.1 		"/>
		<polygon points="514.7,117.3 506,117.3 506,94.9 497.2,94.9 497.2,86.6 523.7,86.6 523.7,94.9 514.7,94.9 		"/>
	</g>
	<g>
		<polygon points="477.4,78.1 486.2,78.1 486.2,100.5 489.9,100.5 489.9,78.1 498.8,78.1 498.8,74.8 477.4,74.8 		"/>
		<polygon points="492.4,103 483.7,103 483.7,80.6 474.9,80.6 474.9,72.3 501.3,72.3 501.3,80.6 492.4,80.6 		"/>
	</g>
	<g>
		<polygon points="499.7,78.1 508.5,78.1 508.5,100.5 512.2,100.5 512.2,78.1 521.2,78.1 521.2,74.8 499.7,74.8 		"/>
		<polygon points="514.7,103 506,103 506,80.6 497.2,80.6 497.2,72.3 523.7,72.3 523.7,80.6 514.7,80.6 		"/>
	</g>
	<g>
		<g>
			<g>
				<path d="M83.8,37.8h42.2v9.5H94.4v22.7h30.4v9.5H94.4v23.1h32.5v9.5H83.8V37.8z"/>
				<path d="M128.9,114H81.8V35.8h46.2v13.5H96.4v18.7h30.4v13.5H96.4v19.1h32.5V114z M85.8,110h39.2v-5.5H92.4V77.4h30.4v-5.5H92.4
					V45.2h31.5v-5.5H85.8V110z"/>
			</g>
		</g>
	</g>
	<rect x="51" y="125" width="78" height="20"/>
	<g>
		<g>
			<g>
				<path d="M52.9,38h14.8v90h46.6v13.5H52.9V38z"/>
				<path d="M117.3,144.5H49.9V35h20.8v90h46.6V144.5z M55.9,138.5h55.4V131H64.7V41h-8.8V138.5z"/>
			</g>
			<g>
				<path d="M171.7,141.3V38h34.9c14.1,0,25.2,2.1,33.4,6.3c8.2,4.2,14.7,10.4,19.6,18.6c4.8,8.2,7.3,17.1,7.3,26.8
					c0,6.9-1.3,13.5-4,19.9c-2.7,6.3-6.5,11.9-11.4,16.7c-5,4.9-10.9,8.7-17.6,11.2c-3.9,1.5-7.5,2.6-10.7,3.1s-9.5,0.8-18.7,0.8
					H171.7z M205.1,51.2h-18.5v77h19c7.4,0,13.2-0.5,17.3-1.5c4.1-1,7.5-2.3,10.3-3.9c2.7-1.6,5.2-3.5,7.5-5.7
					c7.3-7.4,11-16.8,11-28.1c0-11.1-3.8-20.2-11.3-27.2c-2.8-2.6-5.9-4.8-9.5-6.4c-3.6-1.7-7-2.8-10.2-3.3
					C217.3,51.5,212.2,51.2,205.1,51.2z"/>
				<path d="M204.5,144.3h-35.7V35h37.9c14.5,0,26.2,2.2,34.8,6.7c8.7,4.5,15.7,11.1,20.8,19.8c5.1,8.6,7.7,18.2,7.7,28.3
					c0,7.3-1.4,14.4-4.2,21c-2.8,6.7-6.9,12.6-12.1,17.7c-5.3,5.2-11.6,9.2-18.6,11.8c-4,1.6-7.9,2.7-11.3,3.2
					C220.1,144.1,213.9,144.3,204.5,144.3z M174.7,138.3h29.7c9,0,15.1-0.2,18.2-0.7c3-0.5,6.4-1.5,10.1-2.9
					c6.3-2.4,11.8-5.9,16.6-10.5c4.6-4.5,8.2-9.8,10.7-15.7c2.5-5.9,3.8-12.2,3.8-18.7c0-9.1-2.3-17.6-6.8-25.3
					c-4.5-7.7-10.7-13.5-18.3-17.5c-7.7-4-18.5-6-32-6h-31.9V138.3z M205.5,131.1h-22v-83h21.5c7.3,0,12.6,0.3,16,0.9
					c3.5,0.6,7.1,1.8,11,3.6c3.9,1.8,7.3,4.2,10.3,7c8.1,7.6,12.2,17.4,12.2,29.4c0,12.1-4,22.2-11.8,30.2c-2.5,2.5-5.2,4.6-8.2,6.2
					c-3,1.7-6.7,3.1-11,4.2C219.1,130.6,213.2,131.1,205.5,131.1z M189.5,125.1h16c7.1,0,12.7-0.5,16.5-1.4c3.8-0.9,7-2.1,9.5-3.5
					c2.5-1.4,4.8-3.2,6.9-5.3c6.8-6.9,10.1-15.4,10.1-26c0-10.3-3.4-18.5-10.3-25c-2.5-2.4-5.5-4.4-8.7-5.9
					c-3.3-1.6-6.5-2.6-9.4-3.1c-3-0.5-8.1-0.8-15-0.8h-15.5V125.1z"/>
			</g>
			<g>
				<path d="M336.1,36.5c16,0,29.3,5.1,39.9,15.2c10.6,10.1,16,22.8,16,38.1c0,15.3-5.4,27.9-16.1,37.9c-10.7,10-24.3,15-40.6,15
					c-15.6,0-28.6-5-39-15c-10.4-10-15.6-22.5-15.6-37.6c0-15.5,5.2-28.2,15.7-38.4C306.9,41.6,320.1,36.5,336.1,36.5z M336.7,50.6
					c-11.8,0-21.6,3.7-29.2,11.1c-7.6,7.4-11.4,16.9-11.4,28.4c0,11.2,3.8,20.4,11.5,27.9c7.6,7.4,17.2,11.1,28.7,11.1
					c11.5,0,21.2-3.8,28.9-11.3c7.7-7.6,11.6-17,11.6-28.2c0-11-3.9-20.2-11.6-27.7C357.4,54.3,348,50.6,336.7,50.6z"/>
				<path d="M335.3,145.7c-16.3,0-30.1-5.3-41.1-15.8c-10.9-10.5-16.5-23.9-16.5-39.8c0-16.2,5.6-29.9,16.6-40.5
					c11-10.6,25-16,41.8-16c16.7,0,30.8,5.4,42,16C389.3,60.2,395,73.7,395,89.8c0,16.1-5.7,29.5-17.1,40.1
					C366.7,140.4,352.4,145.7,335.3,145.7z M336.1,39.5c-15.1,0-27.8,4.8-37.6,14.3c-9.9,9.6-14.8,21.5-14.8,36.2
					c0,14.3,4.8,25.9,14.7,35.4c9.8,9.4,22.2,14.2,36.9,14.2c15.5,0,28.4-4.8,38.6-14.2c10.2-9.5,15.1-21.2,15.1-35.7
					c0-14.5-4.9-26.3-15-35.9C364,44.4,351.2,39.5,336.1,39.5z M336.3,132c-12.2,0-22.6-4-30.8-12c-8.2-8-12.4-18.1-12.4-30
					c0-12.3,4.2-22.6,12.3-30.5c8.2-7.9,18.7-12,31.3-12c12,0,22.3,4.1,30.5,12.1c8.3,8,12.5,18.1,12.5,29.8
					c0,12-4.2,22.3-12.5,30.4C359,127.9,348.6,132,336.3,132z M336.7,53.6c-11.1,0-20,3.4-27.1,10.3c-7.1,6.9-10.5,15.5-10.5,26.2
					c0,10.4,3.5,18.8,10.6,25.7c7.1,6.9,15.8,10.3,26.6,10.3c10.8,0,19.6-3.4,26.8-10.5c7.2-7,10.7-15.6,10.7-26.1
					c0-10.2-3.5-18.6-10.7-25.5C355.9,57,347.3,53.6,336.7,53.6z"/>
			</g>
			<g>
				<path d="M410.4,38h14.8v102.1c0,9.5-1,16.6-2.9,21.1c-2,4.6-5.1,8.2-9.4,11c-4.3,2.7-9.6,4.1-15.7,4.1c-0.9,0-2.5-0.1-4.8-0.4
					l-2.7-13.8h3.8c4.2,0,7.5-0.5,9.7-1.6c2.2-1,4-2.9,5.3-5.5c1.3-2.6,2-8.2,2-16.7V38z"/>
				<path d="M397.1,179.4c-1.1,0-2.8-0.2-5.2-0.5l-2.1-0.3l-3.9-19.5h7.4c3.8,0,6.6-0.4,8.5-1.3c1.6-0.7,2.9-2.1,3.9-4.1
					c0.6-1.2,1.6-4.9,1.6-15.3V35h20.8v105.1c0,10-1,17.3-3.2,22.3c-2.2,5.1-5.8,9.3-10.6,12.3C409.6,177.8,403.8,179.4,397.1,179.4
					z M394.8,173.2c1.2,0.1,1.9,0.2,2.3,0.2c5.5,0,10.3-1.2,14.1-3.6c3.9-2.4,6.6-5.6,8.3-9.6c1.8-4.2,2.7-10.9,2.7-20V41h-8.8v97.4
					c0,9.2-0.7,14.9-2.3,18c-1.6,3.2-3.9,5.5-6.8,6.9c-2.7,1.2-6.3,1.8-11,1.8h-0.1L394.8,173.2z"/>
			</g>
			<g>
				<path d="M538.9,51.7c-10.6-10.1-23.9-15.2-39.9-15.2c-16,0-29.2,5.1-39.7,15.2c-10.5,10.1-15.7,22.9-15.7,38.4
					c0,15.1,5.2,27.6,15.6,37.6c10.4,10,23.4,15,39,15c16.3,0,29.9-5,40.6-15c10.7-10,16.1-22.6,16.1-37.9
					C554.8,74.5,549.5,61.8,538.9,51.7z M528,117.7c-7.7,7.6-17.4,11.3-28.9,11.3c-11.5,0-21.1-3.7-28.7-11.1s-11.5-16.7-11.5-27.9
					c0-11.5,3.8-21,11.4-28.4c7.6-7.4,17.4-11.1,29.2-11.1c11.2,0,20.7,3.7,28.5,11.2c7.7,7.5,11.6,16.7,11.6,27.7
					C539.6,100.7,535.7,110.2,528,117.7z"/>
				<path d="M498.1,145.7c-16.3,0-30.1-5.3-41.1-15.8c-11-10.5-16.5-23.9-16.5-39.8c0-16.2,5.6-29.9,16.6-40.5
					c11-10.6,25-16,41.8-16c16.7,0,30.8,5.4,42,16l0,0c11.2,10.7,16.9,24.2,16.9,40.2c0,16.1-5.7,29.5-17.1,40.1
					C529.5,140.4,515.2,145.7,498.1,145.7z M498.9,39.5c-15.1,0-27.8,4.8-37.6,14.3c-9.9,9.6-14.8,21.5-14.8,36.2
					c0,14.3,4.8,25.9,14.7,35.4c9.8,9.4,22.2,14.2,36.9,14.2c15.5,0,28.4-4.8,38.6-14.2c10.2-9.5,15.1-21.2,15.1-35.7
					c0-14.5-4.9-26.3-15-35.9C526.8,44.4,514.1,39.5,498.9,39.5z M499.1,132c-12.2,0-22.6-4-30.8-12c-8.2-8-12.4-18.1-12.4-30
					c0-12.3,4.2-22.6,12.3-30.5c8.2-7.9,18.7-12,31.3-12c12,0,22.3,4.1,30.5,12.1c8.3,8,12.5,18.1,12.5,29.8
					c0,12-4.2,22.3-12.5,30.4h0C521.8,127.9,511.4,132,499.1,132z M499.5,53.6c-11.1,0-20,3.4-27.1,10.3
					c-7.1,6.9-10.5,15.5-10.5,26.2c0,10.4,3.5,18.8,10.6,25.7c7.1,6.9,15.8,10.3,26.6,10.3c10.8,0,19.6-3.4,26.8-10.5
					c7.2-7,10.7-15.6,10.7-26.1c0-10.2-3.5-18.6-10.7-25.5C518.7,57,510.1,53.6,499.5,53.6z"/>
			</g>
		</g>
	</g>
</g>
<g id="Logo-white" class="st0">
	<g class="st1">
		<g>
			<rect x="458.6" y="114.1" class="st14" width="81.8" height="0.4"/>
			<rect x="454.6" y="110.1" class="st14" width="89.8" height="8.4"/>
		</g>
		<g>
			<g>
				<g>
					<path class="st14" d="M477.2,89.4h21.5v3.3h-9v22.4H486V92.7h-8.8V89.4z"/>
					<polygon class="st14" points="492.2,117.6 483.5,117.6 483.5,95.2 474.7,95.2 474.7,86.9 501.1,86.9 501.1,95.2 492.2,95.2 
											"/>
				</g>
				<g>
					<path class="st14" d="M499.5,89.4H521v3.3h-9v22.4h-3.7V92.7h-8.8V89.4z"/>
					<polygon class="st14" points="514.5,117.6 505.8,117.6 505.8,95.2 497,95.2 497,86.9 523.5,86.9 523.5,95.2 514.5,95.2 					
						"/>
				</g>
			</g>
		</g>
		<g>
			<g>
				<g>
					<path class="st14" d="M477.2,75.1h21.5v3.3h-9v22.4H486V78.4h-8.8V75.1z"/>
					<polygon class="st14" points="492.2,103.3 483.5,103.3 483.5,80.9 474.7,80.9 474.7,72.6 501.1,72.6 501.1,80.9 492.2,80.9 
											"/>
				</g>
				<g>
					<path class="st14" d="M499.5,75.1H521v3.3h-9v22.4h-3.7V78.4h-8.8V75.1z"/>
					<polygon class="st14" points="514.5,103.3 505.8,103.3 505.8,80.9 497,80.9 497,72.6 523.5,72.6 523.5,80.9 514.5,80.9 					
						"/>
				</g>
			</g>
		</g>
	</g>
	<g id="black_00000085963994731762637870000009131153087825237644_" class="st1">
		<g>
			<rect x="56.8" y="38.1" class="st2" width="91.7" height="119.2"/>
			<text transform="matrix(1 0 0 1 75.3666 112.4012)" class="st17 st3 st18 st19">E</text>
		</g>
		<g>
			<rect x="50.8" y="125.3" class="st14" width="78" height="20"/>
			<path class="st14" d="M129.3,145.8h-79v-21h79V145.8z M51.3,144.8h77v-19h-77V144.8z"/>
		</g>
		<g>
			<rect x="10.6" y="38.3" class="st2" width="581.6" height="186.1"/>
			<text transform="matrix(1 0 0 1 41.3061 141.7679)"><tspan x="0" y="0" class="st15 st3 st13 st20">L </tspan><tspan x="118.6" y="0" class="st15 st3 st13">DOJO</tspan></text>
		</g>
	</g>
</g>
</svg>
